<?xml version="1.0" encoding="utf-8"?>
<!-- Generator: Adobe Illustrator 19.0.0, SVG Export Plug-In . SVG Version: 6.00 Build 0)  -->
<svg version="1.1" id="Layer_1" xmlns="http://www.w3.org/2000/svg" xmlns:xlink="http://www.w3.org/1999/xlink" x="0px" y="0px"
	 width="370px" height="560px" viewBox="0 0 370 560" style="enable-background:new 0 0 370 560;" xml:space="preserve">
<style type="text/css">
	.st0{fill:#9CADD6;}
	.st1{fill:#FFFFFF;}
	.st2{fill:#843121;}
	.st3{fill:#B53918;}
	.st4{fill:#FCFCFC;}
</style>
<g id="XMLID_1_">
	<g id="XMLID_3_">
		<g id="XMLID_367_">
			<rect id="XMLID_610_" x="292.1" y="39.3" class="st0" width="9.7" height="9.8"/>
			<rect id="XMLID_609_" x="292.1" y="29.5" class="st0" width="9.7" height="9.8"/>
			<rect id="XMLID_608_" x="292.1" y="19.6" class="st0" width="9.7" height="9.8"/>
			<rect id="XMLID_607_" x="282.4" y="49.1" class="st0" width="9.7" height="9.8"/>
			<rect id="XMLID_606_" x="282.4" y="39.3" class="st0" width="9.7" height="9.8"/>
			<rect id="XMLID_605_" x="282.4" y="29.5" class="st0" width="9.7" height="9.8"/>
			<rect id="XMLID_604_" x="282.4" y="19.6" class="st0" width="9.7" height="9.8"/>
			<rect id="XMLID_603_" x="282.4" y="9.8" class="st0" width="9.7" height="9.8"/>
			<rect id="XMLID_602_" x="272.6" y="402.8" class="st0" width="9.7" height="9.8"/>
			<rect id="XMLID_601_" x="272.6" y="393" class="st0" width="9.7" height="9.8"/>
			<rect id="XMLID_600_" x="272.6" y="59" class="st1" width="9.7" height="9.8"/>
			<rect id="XMLID_599_" x="272.6" y="49.1" class="st1" width="9.7" height="9.8"/>
			<rect id="XMLID_598_" x="272.6" y="39.3" class="st0" width="9.7" height="9.8"/>
			<rect id="XMLID_597_" x="272.6" y="29.5" class="st0" width="9.7" height="9.8"/>
			<rect id="XMLID_596_" x="272.6" y="19.6" class="st0" width="9.7" height="9.8"/>
			<rect id="XMLID_595_" x="262.9" y="412.6" class="st0" width="9.7" height="9.8"/>
			<rect id="XMLID_594_" x="262.9" y="402.8" class="st0" width="9.7" height="9.8"/>
			<rect id="XMLID_593_" x="262.9" y="393" class="st0" width="9.7" height="9.8"/>
			<rect id="XMLID_592_" x="262.9" y="59" class="st1" width="9.7" height="9.8"/>
			<rect id="XMLID_591_" x="262.9" y="49.1" class="st1" width="9.7" height="9.8"/>
			<rect id="XMLID_590_" x="262.9" y="39.3" class="st1" width="9.7" height="9.8"/>
			<rect id="XMLID_589_" x="262.9" y="29.5" class="st0" width="9.7" height="9.8"/>
			<rect id="XMLID_588_" x="253.2" y="422.5" class="st1" width="9.7" height="9.8"/>
			<rect id="XMLID_587_" x="253.2" y="412.6" class="st1" width="9.7" height="9.8"/>
			<rect id="XMLID_586_" x="253.2" y="402.8" class="st0" width="9.7" height="9.8"/>
			<rect id="XMLID_585_" x="253.2" y="393" class="st0" width="9.7" height="9.8"/>
			<rect id="XMLID_584_" x="253.2" y="383.2" class="st0" width="9.7" height="9.8"/>
			<rect id="XMLID_583_" x="253.2" y="68.8" class="st1" width="9.7" height="9.8"/>
			<rect id="XMLID_582_" x="253.2" y="59" class="st1" width="9.7" height="9.8"/>
			<rect id="XMLID_581_" x="253.2" y="49.1" class="st1" width="9.7" height="9.8"/>
			<rect id="XMLID_580_" x="253.2" y="39.3" class="st1" width="9.7" height="9.8"/>
			<rect id="XMLID_579_" x="253.2" y="29.5" class="st0" width="9.7" height="9.8"/>
			<rect id="XMLID_578_" x="253.2" y="19.6" class="st0" width="9.7" height="9.8"/>
			<rect id="XMLID_577_" x="243.4" y="422.5" class="st1" width="9.7" height="9.8"/>
			<rect id="XMLID_576_" x="243.4" y="412.6" class="st1" width="9.7" height="9.8"/>
			<rect id="XMLID_575_" x="243.4" y="402.8" class="st0" width="9.7" height="9.8"/>
			<rect id="XMLID_574_" x="243.4" y="393" class="st0" width="9.7" height="9.8"/>
			<rect id="XMLID_573_" x="243.4" y="383.2" class="st0" width="9.7" height="9.8"/>
			<rect id="XMLID_572_" x="243.4" y="88.4" class="st1" width="9.7" height="9.8"/>
			<rect id="XMLID_571_" x="243.4" y="78.6" class="st1" width="9.7" height="9.8"/>
			<rect id="XMLID_570_" x="243.4" y="68.8" class="st1" width="9.7" height="9.8"/>
			<rect id="XMLID_569_" x="243.4" y="59" class="st1" width="9.7" height="9.8"/>
			<rect id="XMLID_568_" x="243.4" y="49.1" class="st1" width="9.7" height="9.8"/>
			<rect id="XMLID_567_" x="243.4" y="39.3" class="st0" width="9.7" height="9.8"/>
			<rect id="XMLID_566_" x="243.4" y="29.5" class="st0" width="9.7" height="9.8"/>
			<rect id="XMLID_565_" x="233.7" y="432.3" class="st0" width="9.7" height="9.8"/>
			<rect id="XMLID_564_" x="233.7" y="422.5" class="st1" width="9.7" height="9.8"/>
			<rect id="XMLID_563_" x="233.7" y="412.6" class="st1" width="9.7" height="9.8"/>
			<rect id="XMLID_562_" x="233.7" y="402.8" class="st1" width="9.7" height="9.8"/>
			<rect id="XMLID_561_" x="233.7" y="393" class="st0" width="9.7" height="9.8"/>
			<rect id="XMLID_560_" x="233.7" y="383.2" class="st0" width="9.7" height="9.8"/>
			<rect id="XMLID_559_" x="233.7" y="324.2" class="st0" width="9.7" height="9.8"/>
			<rect id="XMLID_558_" x="233.7" y="314.4" class="st2" width="9.7" height="9.8"/>
			<rect id="XMLID_557_" x="233.7" y="304.6" class="st0" width="9.7" height="9.8"/>
			<rect id="XMLID_556_" x="233.7" y="294.7" class="st0" width="9.7" height="9.8"/>
			<rect id="XMLID_555_" x="233.7" y="284.9" class="st0" width="9.7" height="9.8"/>
			<rect id="XMLID_554_" x="233.7" y="275.1" class="st0" width="9.7" height="9.8"/>
			<rect id="XMLID_553_" x="233.7" y="265.3" class="st0" width="9.7" height="9.8"/>
			<rect id="XMLID_552_" x="233.7" y="255.4" class="st2" width="9.7" height="9.8"/>
			<rect id="XMLID_551_" x="233.7" y="245.6" class="st2" width="9.7" height="9.8"/>
			<rect id="XMLID_550_" x="233.7" y="235.8" class="st2" width="9.7" height="9.8"/>
			<rect id="XMLID_549_" x="233.7" y="226" class="st0" width="9.7" height="9.8"/>
			<rect id="XMLID_548_" x="233.7" y="216.1" class="st0" width="9.7" height="9.8"/>
			<rect id="XMLID_547_" x="233.7" y="206.3" class="st0" width="9.7" height="9.8"/>
			<rect id="XMLID_546_" x="233.7" y="196.5" class="st0" width="9.7" height="9.8"/>
			<rect id="XMLID_545_" x="233.7" y="186.7" class="st0" width="9.7" height="9.8"/>
			<rect id="XMLID_544_" x="233.7" y="137.5" class="st0" width="9.7" height="9.8"/>
			<rect id="XMLID_543_" x="233.7" y="127.7" class="st0" width="9.7" height="9.8"/>
			<rect id="XMLID_542_" x="233.7" y="117.9" class="st2" width="9.7" height="9.8"/>
			<rect id="XMLID_541_" x="233.7" y="108.1" class="st2" width="9.7" height="9.8"/>
			<rect id="XMLID_540_" x="233.7" y="98.3" class="st1" width="9.7" height="9.8"/>
			<rect id="XMLID_539_" x="233.7" y="88.4" class="st1" width="9.7" height="9.8"/>
			<rect id="XMLID_538_" x="233.7" y="78.6" class="st1" width="9.7" height="9.8"/>
			<rect id="XMLID_537_" x="233.7" y="68.8" class="st1" width="9.7" height="9.8"/>
			<rect id="XMLID_536_" x="233.7" y="59" class="st1" width="9.7" height="9.8"/>
			<rect id="XMLID_535_" x="233.7" y="49.1" class="st0" width="9.7" height="9.8"/>
			<rect id="XMLID_534_" x="223.9" y="432.3" class="st0" width="9.7" height="9.8"/>
			<rect id="XMLID_533_" x="223.9" y="422.5" class="st1" width="9.7" height="9.8"/>
			<rect id="XMLID_532_" x="223.9" y="412.6" class="st1" width="9.7" height="9.8"/>
			<rect id="XMLID_531_" x="223.9" y="402.8" class="st1" width="9.7" height="9.8"/>
			<rect id="XMLID_530_" x="223.9" y="393" class="st0" width="9.7" height="9.8"/>
			<rect id="XMLID_529_" x="223.9" y="383.2" class="st0" width="9.7" height="9.8"/>
			<rect id="XMLID_528_" x="223.9" y="363.5" class="st0" width="9.7" height="9.8"/>
			<rect id="XMLID_527_" x="223.9" y="353.7" class="st2" width="9.7" height="9.8"/>
			<rect id="XMLID_526_" x="223.9" y="343.9" class="st2" width="9.7" height="9.8"/>
			<rect id="XMLID_525_" x="223.9" y="334" class="st2" width="9.7" height="9.8"/>
			<rect id="XMLID_524_" x="223.9" y="324.2" class="st2" width="9.7" height="9.8"/>
			<rect id="XMLID_523_" x="223.9" y="314.4" class="st2" width="9.7" height="9.8"/>
			<rect id="XMLID_522_" x="223.9" y="304.6" class="st2" width="9.7" height="9.8"/>
			<rect id="XMLID_521_" x="223.9" y="294.7" class="st2" width="9.7" height="9.8"/>
			<rect id="XMLID_520_" x="223.9" y="284.9" class="st0" width="9.7" height="9.8"/>
			<rect id="XMLID_519_" x="223.9" y="275.1" class="st0" width="9.7" height="9.8"/>
			<rect id="XMLID_518_" x="223.9" y="265.3" class="st0" width="9.7" height="9.8"/>
			<rect id="XMLID_517_" x="223.9" y="255.4" class="st2" width="9.7" height="9.8"/>
			<rect id="XMLID_516_" x="223.9" y="245.6" class="st2" width="9.7" height="9.8"/>
			<rect id="XMLID_515_" x="223.9" y="235.8" class="st2" width="9.7" height="9.8"/>
			<rect id="XMLID_514_" x="223.9" y="226" class="st2" width="9.7" height="9.8"/>
			<rect id="XMLID_513_" x="223.9" y="216.1" class="st1" width="9.7" height="9.8"/>
			<rect id="XMLID_512_" x="223.9" y="206.3" class="st0" width="9.7" height="9.8"/>
			<rect id="XMLID_511_" x="223.9" y="196.5" class="st0" width="9.7" height="9.8"/>
			<rect id="XMLID_510_" x="223.9" y="186.7" class="st0" width="9.7" height="9.8"/>
			<rect id="XMLID_509_" x="223.9" y="176.8" class="st0" width="9.7" height="9.8"/>
			<rect id="XMLID_508_" x="223.9" y="167" class="st3" width="9.7" height="9.8"/>
			<rect id="XMLID_507_" x="223.9" y="157.2" class="st3" width="9.7" height="9.8"/>
			<rect id="XMLID_506_" x="223.9" y="147.4" class="st3" width="9.7" height="9.8"/>
			<rect id="XMLID_505_" x="223.9" y="137.5" class="st3" width="9.7" height="9.8"/>
			<rect id="XMLID_504_" x="223.9" y="127.7" class="st2" width="9.7" height="9.8"/>
			<rect id="XMLID_503_" x="223.9" y="117.9" class="st3" width="9.7" height="9.8"/>
			<rect id="XMLID_502_" x="223.9" y="108.1" class="st3" width="9.7" height="9.8"/>
			<rect id="XMLID_501_" x="223.9" y="98.3" class="st1" width="9.7" height="9.8"/>
			<rect id="XMLID_500_" x="223.9" y="88.4" class="st1" width="9.7" height="9.8"/>
			<rect id="XMLID_499_" x="214.2" y="432.3" class="st0" width="9.7" height="9.8"/>
			<rect id="XMLID_498_" x="214.2" y="422.5" class="st0" width="9.7" height="9.8"/>
			<rect id="XMLID_497_" x="214.2" y="412.6" class="st0" width="9.7" height="9.8"/>
			<rect id="XMLID_496_" x="214.2" y="402.8" class="st0" width="9.7" height="9.8"/>
			<rect id="XMLID_495_" x="214.2" y="393" class="st0" width="9.7" height="9.8"/>
			<rect id="XMLID_494_" x="214.2" y="383.2" class="st0" width="9.7" height="9.8"/>
			<rect id="XMLID_493_" x="214.2" y="373.3" class="st0" width="9.7" height="9.8"/>
			<rect id="XMLID_492_" x="214.2" y="363.5" class="st1" width="9.7" height="9.8"/>
			<rect id="XMLID_491_" x="214.2" y="353.7" class="st1" width="9.7" height="9.8"/>
			<rect id="XMLID_490_" x="214.2" y="343.9" class="st2" width="9.7" height="9.8"/>
			<rect id="XMLID_489_" x="214.2" y="334" class="st2" width="9.7" height="9.8"/>
			<rect id="XMLID_488_" x="214.2" y="324.2" class="st2" width="9.7" height="9.8"/>
			<rect id="XMLID_487_" x="214.2" y="314.4" class="st2" width="9.7" height="9.8"/>
			<rect id="XMLID_486_" x="214.2" y="304.6" class="st2" width="9.7" height="9.8"/>
			<rect id="XMLID_485_" x="214.2" y="294.7" class="st2" width="9.7" height="9.8"/>
			<rect id="XMLID_484_" x="214.2" y="284.9" class="st3" width="9.7" height="9.8"/>
			<rect id="XMLID_483_" x="214.2" y="275.1" class="st3" width="9.7" height="9.8"/>
			<rect id="XMLID_482_" x="214.2" y="265.3" class="st1" width="9.7" height="9.8"/>
			<rect id="XMLID_481_" x="214.2" y="255.4" class="st3" width="9.7" height="9.8"/>
			<rect id="XMLID_480_" x="214.2" y="245.6" class="st3" width="9.7" height="9.8"/>
			<rect id="XMLID_479_" x="214.2" y="235.8" class="st3" width="9.7" height="9.8"/>
			<rect id="XMLID_478_" x="214.2" y="226" class="st3" width="9.7" height="9.8"/>
			<rect id="XMLID_477_" x="214.2" y="216.1" class="st1" width="9.7" height="9.8"/>
			<rect id="XMLID_476_" x="214.2" y="206.3" class="st4" width="9.7" height="9.8"/>
			<rect id="XMLID_475_" x="214.2" y="196.5" class="st4" width="9.7" height="9.8"/>
			<rect id="XMLID_474_" x="214.2" y="186.7" class="st4" width="9.7" height="9.8"/>
			<rect id="XMLID_473_" x="214.2" y="176.8" class="st1" width="9.7" height="9.8"/>
			<rect id="XMLID_472_" x="214.2" y="167" class="st3" width="9.7" height="9.8"/>
			<rect id="XMLID_471_" x="214.2" y="157.2" class="st3" width="9.7" height="9.8"/>
			<rect id="XMLID_470_" x="214.2" y="147.4" class="st3" width="9.7" height="9.8"/>
			<rect id="XMLID_469_" x="214.2" y="137.5" class="st3" width="9.7" height="9.8"/>
			<rect id="XMLID_468_" x="214.2" y="127.7" class="st3" width="9.7" height="9.8"/>
			<rect id="XMLID_467_" x="214.2" y="117.9" class="st1" width="9.7" height="9.8"/>
			<rect id="XMLID_466_" x="214.2" y="108.1" class="st3" width="9.7" height="9.8"/>
			<rect id="XMLID_465_" x="214.2" y="98.3" class="st1" width="9.7" height="9.8"/>
			<rect id="XMLID_464_" x="204.5" y="432.3" class="st0" width="9.7" height="9.8"/>
			<rect id="XMLID_463_" x="204.5" y="422.5" class="st1" width="9.7" height="9.8"/>
			<rect id="XMLID_462_" x="204.5" y="412.6" class="st1" width="9.7" height="9.8"/>
			<rect id="XMLID_461_" x="204.5" y="402.8" class="st1" width="9.7" height="9.8"/>
			<rect id="XMLID_460_" x="204.5" y="393" class="st1" width="9.7" height="9.8"/>
			<rect id="XMLID_459_" x="204.5" y="383.2" class="st1" width="9.7" height="9.8"/>
			<rect id="XMLID_458_" x="204.5" y="373.3" class="st1" width="9.7" height="9.8"/>
			<rect id="XMLID_457_" x="204.5" y="363.5" class="st1" width="9.7" height="9.8"/>
			<rect id="XMLID_456_" x="204.5" y="353.7" class="st1" width="9.7" height="9.8"/>
			<rect id="XMLID_455_" x="204.5" y="343.9" class="st1" width="9.7" height="9.8"/>
			<rect id="XMLID_454_" x="204.5" y="334" class="st2" width="9.7" height="9.8"/>
			<rect id="XMLID_453_" x="204.5" y="324.2" class="st3" width="9.7" height="9.8"/>
			<rect id="XMLID_452_" x="204.5" y="314.4" class="st3" width="9.7" height="9.8"/>
			<rect id="XMLID_451_" x="204.5" y="304.6" class="st3" width="9.7" height="9.8"/>
			<rect id="XMLID_450_" x="204.5" y="294.7" class="st3" width="9.7" height="9.8"/>
			<rect id="XMLID_449_" x="204.5" y="284.9" class="st3" width="9.7" height="9.8"/>
			<rect id="XMLID_448_" x="204.5" y="275.1" class="st3" width="9.7" height="9.8"/>
			<rect id="XMLID_447_" x="204.5" y="265.3" class="st1" width="9.7" height="9.8"/>
			<rect id="XMLID_446_" x="204.5" y="255.4" class="st3" width="9.7" height="9.8"/>
			<rect id="XMLID_445_" x="204.5" y="245.6" class="st3" width="9.7" height="9.8"/>
			<rect id="XMLID_444_" x="204.5" y="235.8" class="st3" width="9.7" height="9.8"/>
			<rect id="XMLID_443_" x="204.5" y="226" class="st3" width="9.7" height="9.8"/>
			<rect id="XMLID_442_" x="204.5" y="216.1" class="st1" width="9.7" height="9.8"/>
			<rect id="XMLID_441_" x="204.5" y="206.3" class="st4" width="9.7" height="9.8"/>
			<rect id="XMLID_440_" x="204.5" y="196.5" class="st4" width="9.7" height="9.8"/>
			<rect id="XMLID_439_" x="204.5" y="186.7" class="st4" width="9.7" height="9.8"/>
			<rect id="XMLID_438_" x="204.5" y="176.8" class="st1" width="9.7" height="9.8"/>
			<rect id="XMLID_437_" x="204.5" y="167" class="st1" width="9.7" height="9.8"/>
			<rect id="XMLID_436_" x="204.5" y="157.2" class="st1" width="9.7" height="9.8"/>
			<rect id="XMLID_435_" x="204.5" y="147.4" class="st1" width="9.7" height="9.8"/>
			<rect id="XMLID_434_" x="204.5" y="137.5" class="st2" width="9.7" height="9.8"/>
			<rect id="XMLID_433_" x="204.5" y="127.7" class="st2" width="9.7" height="9.8"/>
			<rect id="XMLID_432_" x="204.5" y="117.9" class="st1" width="9.7" height="9.8"/>
			<rect id="XMLID_431_" x="194.7" y="451.9" class="st0" width="9.7" height="9.8"/>
			<rect id="XMLID_430_" x="194.7" y="442.1" class="st0" width="9.7" height="9.8"/>
			<rect id="XMLID_429_" x="194.7" y="432.3" class="st1" width="9.7" height="9.8"/>
			<rect id="XMLID_428_" x="194.7" y="422.5" class="st1" width="9.7" height="9.8"/>
			<rect id="XMLID_427_" x="194.7" y="412.6" class="st1" width="9.7" height="9.8"/>
			<rect id="XMLID_426_" x="194.7" y="402.8" class="st2" width="9.7" height="9.8"/>
			<rect id="XMLID_425_" x="194.7" y="393" class="st2" width="9.7" height="9.8"/>
			<rect id="XMLID_424_" x="194.7" y="383.2" class="st2" width="9.7" height="9.8"/>
			<rect id="XMLID_423_" x="194.7" y="373.3" class="st2" width="9.7" height="9.8"/>
			<rect id="XMLID_422_" x="194.7" y="363.5" class="st2" width="9.7" height="9.8"/>
			<rect id="XMLID_421_" x="194.7" y="353.7" class="st1" width="9.7" height="9.8"/>
			<rect id="XMLID_420_" x="194.7" y="343.9" class="st1" width="9.7" height="9.8"/>
			<rect id="XMLID_419_" x="194.7" y="334" class="st1" width="9.7" height="9.8"/>
			<rect id="XMLID_418_" x="194.7" y="324.2" class="st3" width="9.7" height="9.8"/>
			<rect id="XMLID_417_" x="194.7" y="314.4" class="st3" width="9.7" height="9.8"/>
			<rect id="XMLID_416_" x="194.7" y="304.6" class="st3" width="9.7" height="9.8"/>
			<rect id="XMLID_415_" x="194.7" y="294.7" class="st3" width="9.7" height="9.8"/>
			<rect id="XMLID_414_" x="194.7" y="284.9" class="st3" width="9.7" height="9.8"/>
			<rect id="XMLID_413_" x="194.7" y="275.1" class="st3" width="9.7" height="9.8"/>
			<rect id="XMLID_412_" x="194.7" y="265.3" class="st1" width="9.7" height="9.8"/>
			<rect id="XMLID_411_" x="194.7" y="255.4" class="st1" width="9.7" height="9.8"/>
			<rect id="XMLID_410_" x="194.7" y="245.6" class="st1" width="9.7" height="9.8"/>
			<rect id="XMLID_409_" x="194.7" y="235.8" class="st3" width="9.7" height="9.8"/>
			<rect id="XMLID_408_" x="194.7" y="226" class="st3" width="9.7" height="9.8"/>
			<rect id="XMLID_407_" x="194.7" y="216.1" class="st1" width="9.7" height="9.8"/>
			<rect id="XMLID_406_" x="194.7" y="206.3" class="st1" width="9.7" height="9.8"/>
			<rect id="XMLID_405_" x="194.7" y="196.5" class="st1" width="9.7" height="9.8"/>
			<rect id="XMLID_404_" x="194.7" y="186.7" class="st1" width="9.7" height="9.8"/>
			<rect id="XMLID_403_" x="194.7" y="176.8" class="st1" width="9.7" height="9.8"/>
			<rect id="XMLID_402_" x="194.7" y="167" class="st3" width="9.7" height="9.8"/>
			<rect id="XMLID_401_" x="194.7" y="157.2" class="st3" width="9.7" height="9.8"/>
			<rect id="XMLID_400_" x="194.7" y="147.4" class="st3" width="9.7" height="9.8"/>
			<rect id="XMLID_399_" x="194.7" y="137.5" class="st0" width="9.7" height="9.8"/>
			<rect id="XMLID_398_" x="185" y="471.6" class="st0" width="9.7" height="9.8"/>
			<rect id="XMLID_397_" x="185" y="461.8" class="st0" width="9.7" height="9.8"/>
			<rect id="XMLID_396_" x="185" y="451.9" class="st1" width="9.7" height="9.8"/>
			<rect id="XMLID_395_" x="185" y="442.1" class="st1" width="9.7" height="9.8"/>
			<rect id="XMLID_394_" x="185" y="432.3" class="st2" width="9.7" height="9.8"/>
			<rect id="XMLID_393_" x="185" y="422.5" class="st2" width="9.7" height="9.8"/>
			<rect id="XMLID_392_" x="185" y="412.6" class="st3" width="9.7" height="9.8"/>
			<rect id="XMLID_391_" x="185" y="402.8" class="st3" width="9.7" height="9.8"/>
			<rect id="XMLID_390_" x="185" y="393" class="st3" width="9.7" height="9.8"/>
			<rect id="XMLID_389_" x="185" y="383.2" class="st3" width="9.7" height="9.8"/>
			<rect id="XMLID_388_" x="185" y="373.3" class="st3" width="9.7" height="9.8"/>
			<rect id="XMLID_387_" x="185" y="363.5" class="st3" width="9.7" height="9.8"/>
			<rect id="XMLID_386_" x="185" y="353.7" class="st3" width="9.7" height="9.8"/>
			<rect id="XMLID_385_" x="185" y="343.9" class="st3" width="9.7" height="9.8"/>
			<rect id="XMLID_384_" x="185" y="334" class="st1" width="9.7" height="9.8"/>
			<rect id="XMLID_383_" x="185" y="324.2" class="st3" width="9.7" height="9.8"/>
			<rect id="XMLID_382_" x="185" y="314.4" class="st3" width="9.7" height="9.8"/>
			<rect id="XMLID_381_" x="185" y="304.6" class="st3" width="9.7" height="9.8"/>
			<rect id="XMLID_380_" x="185" y="294.7" class="st3" width="9.7" height="9.8"/>
			<rect id="XMLID_379_" x="185" y="284.9" class="st3" width="9.7" height="9.8"/>
			<rect id="XMLID_378_" x="185" y="275.1" class="st1" width="9.7" height="9.8"/>
			<rect id="XMLID_377_" x="185" y="265.3" class="st1" width="9.7" height="9.8"/>
			<rect id="XMLID_376_" x="185" y="255.4" class="st1" width="9.7" height="9.8"/>
			<rect id="XMLID_375_" x="185" y="245.6" class="st1" width="9.7" height="9.8"/>
			<rect id="XMLID_374_" x="185" y="235.8" class="st1" width="9.7" height="9.8"/>
			<rect id="XMLID_373_" x="185" y="226" class="st1" width="9.7" height="9.8"/>
			<rect id="XMLID_372_" x="185" y="216.1" class="st1" width="9.7" height="9.8"/>
			<rect id="XMLID_371_" x="185" y="206.3" class="st1" width="9.7" height="9.8"/>
			<rect id="XMLID_370_" x="185" y="196.5" class="st1" width="9.7" height="9.8"/>
			<rect id="XMLID_369_" x="185" y="186.7" class="st3" width="9.7" height="9.8"/>
			<rect id="XMLID_368_" x="185" y="176.8" class="st3" width="9.7" height="9.8"/>
			<rect id="XMLID_269_" x="185" y="167" class="st2" width="9.7" height="9.8"/>
			<rect id="XMLID_267_" x="185" y="157.2" class="st2" width="9.7" height="9.8"/>
			<rect id="XMLID_266_" x="175.3" y="491.2" class="st0" width="9.7" height="9.8"/>
			<rect id="XMLID_265_" x="175.3" y="481.4" class="st0" width="9.7" height="9.8"/>
			<rect id="XMLID_264_" x="175.3" y="471.6" class="st2" width="9.7" height="9.8"/>
			<rect id="XMLID_263_" x="175.3" y="461.8" class="st2" width="9.7" height="9.8"/>
			<rect id="XMLID_262_" x="175.3" y="451.9" class="st2" width="9.7" height="9.8"/>
			<rect id="XMLID_261_" x="175.3" y="442.1" class="st2" width="9.7" height="9.8"/>
			<rect id="XMLID_260_" x="175.3" y="432.3" class="st2" width="9.7" height="9.8"/>
			<rect id="XMLID_259_" x="175.3" y="422.5" class="st3" width="9.7" height="9.8"/>
			<rect id="XMLID_258_" x="175.3" y="412.6" class="st3" width="9.7" height="9.8"/>
			<rect id="XMLID_257_" x="175.3" y="402.8" class="st3" width="9.7" height="9.8"/>
			<rect id="XMLID_256_" x="175.3" y="393" class="st3" width="9.7" height="9.8"/>
			<rect id="XMLID_255_" x="175.3" y="383.2" class="st3" width="9.7" height="9.8"/>
			<rect id="XMLID_254_" x="175.3" y="373.3" class="st3" width="9.7" height="9.8"/>
			<rect id="XMLID_253_" x="175.3" y="363.5" class="st3" width="9.7" height="9.8"/>
			<rect id="XMLID_252_" x="175.3" y="353.7" class="st3" width="9.7" height="9.8"/>
			<rect id="XMLID_251_" x="175.3" y="343.9" class="st3" width="9.7" height="9.8"/>
			<rect id="XMLID_250_" x="175.3" y="334" class="st3" width="9.7" height="9.8"/>
			<rect id="XMLID_249_" x="175.3" y="324.2" class="st1" width="9.7" height="9.8"/>
			<rect id="XMLID_248_" x="175.3" y="314.4" class="st3" width="9.7" height="9.8"/>
			<rect id="XMLID_247_" x="175.3" y="304.6" class="st3" width="9.7" height="9.8"/>
			<rect id="XMLID_246_" x="175.3" y="294.7" class="st3" width="9.7" height="9.8"/>
			<rect id="XMLID_245_" x="175.3" y="284.9" class="st1" width="9.7" height="9.8"/>
			<rect id="XMLID_244_" x="175.3" y="275.1" class="st1" width="9.7" height="9.8"/>
			<rect id="XMLID_243_" x="175.3" y="265.3" class="st1" width="9.7" height="9.8"/>
			<rect id="XMLID_242_" x="175.3" y="255.4" class="st1" width="9.7" height="9.8"/>
			<rect id="XMLID_241_" x="175.3" y="245.6" class="st1" width="9.7" height="9.8"/>
			<rect id="XMLID_240_" x="175.3" y="235.8" class="st1" width="9.7" height="9.8"/>
			<rect id="XMLID_239_" x="175.3" y="226" class="st1" width="9.7" height="9.8"/>
			<rect id="XMLID_238_" x="175.3" y="216.1" class="st3" width="9.7" height="9.8"/>
			<rect id="XMLID_237_" x="175.3" y="206.3" class="st3" width="9.7" height="9.8"/>
			<rect id="XMLID_236_" x="175.3" y="196.5" class="st2" width="9.7" height="9.8"/>
			<rect id="XMLID_235_" x="175.3" y="186.7" class="st2" width="9.7" height="9.8"/>
			<rect id="XMLID_234_" x="175.3" y="176.8" class="st2" width="9.7" height="9.8"/>
			<rect id="XMLID_233_" x="165.5" y="540.3" class="st0" width="9.7" height="9.8"/>
			<rect id="XMLID_232_" x="165.5" y="510.9" class="st0" width="9.7" height="9.8"/>
			<rect id="XMLID_231_" x="165.5" y="501" class="st0" width="9.7" height="9.8"/>
			<rect id="XMLID_230_" x="165.5" y="491.2" class="st2" width="9.7" height="9.8"/>
			<rect id="XMLID_229_" x="165.5" y="481.4" class="st2" width="9.7" height="9.8"/>
			<rect id="XMLID_228_" x="165.5" y="471.6" class="st3" width="9.7" height="9.8"/>
			<rect id="XMLID_227_" x="165.5" y="461.8" class="st3" width="9.7" height="9.8"/>
			<rect id="XMLID_226_" x="165.5" y="451.9" class="st3" width="9.7" height="9.8"/>
			<rect id="XMLID_225_" x="165.5" y="442.1" class="st3" width="9.7" height="9.8"/>
			<rect id="XMLID_224_" x="165.5" y="432.3" class="st3" width="9.7" height="9.8"/>
			<rect id="XMLID_223_" x="165.5" y="422.5" class="st3" width="9.7" height="9.8"/>
			<rect id="XMLID_222_" x="165.5" y="412.6" class="st3" width="9.7" height="9.8"/>
			<rect id="XMLID_221_" x="165.5" y="402.8" class="st3" width="9.7" height="9.8"/>
			<rect id="XMLID_220_" x="165.5" y="393" class="st3" width="9.7" height="9.8"/>
			<rect id="XMLID_219_" x="165.5" y="383.2" class="st3" width="9.7" height="9.8"/>
			<rect id="XMLID_218_" x="165.5" y="373.3" class="st3" width="9.7" height="9.8"/>
			<rect id="XMLID_217_" x="165.5" y="363.5" class="st3" width="9.7" height="9.8"/>
			<rect id="XMLID_216_" x="165.5" y="353.7" class="st3" width="9.7" height="9.8"/>
			<rect id="XMLID_215_" x="165.5" y="343.9" class="st3" width="9.7" height="9.8"/>
			<rect id="XMLID_214_" x="165.5" y="334" class="st3" width="9.7" height="9.8"/>
			<rect id="XMLID_213_" x="165.5" y="324.2" class="st1" width="9.7" height="9.8"/>
			<rect id="XMLID_212_" x="165.5" y="314.4" class="st1" width="9.7" height="9.8"/>
			<rect id="XMLID_211_" x="165.5" y="304.6" class="st1" width="9.7" height="9.8"/>
			<rect id="XMLID_210_" x="165.5" y="294.7" class="st1" width="9.7" height="9.8"/>
			<rect id="XMLID_209_" x="165.5" y="284.9" class="st1" width="9.7" height="9.8"/>
			<rect id="XMLID_208_" x="165.5" y="275.1" class="st1" width="9.7" height="9.8"/>
			<rect id="XMLID_207_" x="165.5" y="265.3" class="st3" width="9.7" height="9.8"/>
			<rect id="XMLID_206_" x="165.5" y="255.4" class="st3" width="9.7" height="9.8"/>
			<rect id="XMLID_205_" x="165.5" y="245.6" class="st3" width="9.7" height="9.8"/>
			<rect id="XMLID_204_" x="165.5" y="235.8" class="st1" width="9.7" height="9.8"/>
			<rect id="XMLID_203_" x="165.5" y="226" class="st3" width="9.7" height="9.8"/>
			<rect id="XMLID_202_" x="165.5" y="216.1" class="st3" width="9.7" height="9.8"/>
			<rect id="XMLID_201_" x="165.5" y="206.3" class="st2" width="9.7" height="9.8"/>
			<rect id="XMLID_200_" x="165.5" y="196.5" class="st2" width="9.7" height="9.8"/>
			<rect id="XMLID_199_" x="155.8" y="530.5" class="st0" width="9.7" height="9.8"/>
			<rect id="XMLID_198_" x="155.8" y="520.7" class="st0" width="9.7" height="9.8"/>
			<rect id="XMLID_197_" x="155.8" y="510.9" class="st1" width="9.7" height="9.8"/>
			<rect id="XMLID_196_" x="155.8" y="501" class="st1" width="9.7" height="9.8"/>
			<rect id="XMLID_195_" x="155.8" y="491.2" class="st2" width="9.7" height="9.8"/>
			<rect id="XMLID_194_" x="155.8" y="481.4" class="st3" width="9.7" height="9.8"/>
			<rect id="XMLID_193_" x="155.8" y="471.6" class="st3" width="9.7" height="9.8"/>
			<rect id="XMLID_192_" x="155.8" y="461.8" class="st3" width="9.7" height="9.8"/>
			<rect id="XMLID_191_" x="155.8" y="451.9" class="st3" width="9.7" height="9.8"/>
			<rect id="XMLID_190_" x="155.8" y="442.1" class="st3" width="9.7" height="9.8"/>
			<rect id="XMLID_189_" x="155.8" y="432.3" class="st3" width="9.7" height="9.8"/>
			<rect id="XMLID_188_" x="155.8" y="422.5" class="st3" width="9.7" height="9.8"/>
			<rect id="XMLID_187_" x="155.8" y="412.6" class="st3" width="9.7" height="9.8"/>
			<rect id="XMLID_186_" x="155.8" y="402.8" class="st3" width="9.7" height="9.8"/>
			<rect id="XMLID_185_" x="155.8" y="393" class="st3" width="9.7" height="9.8"/>
			<rect id="XMLID_184_" x="155.8" y="383.2" class="st3" width="9.7" height="9.8"/>
			<rect id="XMLID_183_" x="155.8" y="373.3" class="st3" width="9.7" height="9.8"/>
			<rect id="XMLID_182_" x="155.8" y="363.5" class="st3" width="9.7" height="9.8"/>
			<rect id="XMLID_181_" x="155.8" y="353.7" class="st3" width="9.7" height="9.8"/>
			<rect id="XMLID_180_" x="155.8" y="343.9" class="st3" width="9.7" height="9.8"/>
			<rect id="XMLID_179_" x="155.8" y="334" class="st3" width="9.7" height="9.8"/>
			<rect id="XMLID_178_" x="155.8" y="324.2" class="st3" width="9.7" height="9.8"/>
			<rect id="XMLID_177_" x="155.8" y="314.4" class="st1" width="9.7" height="9.8"/>
			<rect id="XMLID_176_" x="155.8" y="304.6" class="st1" width="9.7" height="9.8"/>
			<rect id="XMLID_175_" x="155.8" y="294.7" class="st1" width="9.7" height="9.8"/>
			<rect id="XMLID_174_" x="155.8" y="284.9" class="st3" width="9.7" height="9.8"/>
			<rect id="XMLID_173_" x="155.8" y="275.1" class="st3" width="9.7" height="9.8"/>
			<rect id="XMLID_172_" x="155.8" y="265.3" class="st3" width="9.7" height="9.8"/>
			<rect id="XMLID_171_" x="155.8" y="255.4" class="st3" width="9.7" height="9.8"/>
			<rect id="XMLID_170_" x="155.8" y="245.6" class="st3" width="9.7" height="9.8"/>
			<rect id="XMLID_169_" x="155.8" y="235.8" class="st1" width="9.7" height="9.8"/>
			<rect id="XMLID_168_" x="155.8" y="226" class="st2" width="9.7" height="9.8"/>
			<rect id="XMLID_167_" x="155.8" y="216.1" class="st2" width="9.7" height="9.8"/>
			<rect id="XMLID_166_" x="146.1" y="530.5" class="st0" width="9.7" height="9.8"/>
			<rect id="XMLID_165_" x="146.1" y="520.7" class="st1" width="9.7" height="9.8"/>
			<rect id="XMLID_164_" x="146.1" y="510.9" class="st1" width="9.7" height="9.8"/>
			<rect id="XMLID_163_" x="146.1" y="501" class="st3" width="9.7" height="9.8"/>
			<rect id="XMLID_162_" x="146.1" y="491.2" class="st3" width="9.7" height="9.8"/>
			<rect id="XMLID_161_" x="146.1" y="481.4" class="st3" width="9.7" height="9.8"/>
			<rect id="XMLID_160_" x="146.1" y="471.6" class="st3" width="9.7" height="9.8"/>
			<rect id="XMLID_159_" x="146.1" y="461.8" class="st3" width="9.7" height="9.8"/>
			<rect id="XMLID_158_" x="146.1" y="451.9" class="st3" width="9.7" height="9.8"/>
			<rect id="XMLID_157_" x="146.1" y="442.1" class="st3" width="9.7" height="9.8"/>
			<rect id="XMLID_156_" x="146.1" y="432.3" class="st3" width="9.7" height="9.8"/>
			<rect id="XMLID_155_" x="146.1" y="422.5" class="st3" width="9.7" height="9.8"/>
			<rect id="XMLID_154_" x="146.1" y="412.6" class="st3" width="9.7" height="9.8"/>
			<rect id="XMLID_153_" x="146.1" y="402.8" class="st3" width="9.7" height="9.8"/>
			<rect id="XMLID_152_" x="146.1" y="393" class="st3" width="9.7" height="9.8"/>
			<rect id="XMLID_151_" x="146.1" y="383.2" class="st3" width="9.7" height="9.8"/>
			<rect id="XMLID_150_" x="146.1" y="373.3" class="st3" width="9.7" height="9.8"/>
			<rect id="XMLID_149_" x="146.1" y="363.5" class="st3" width="9.7" height="9.8"/>
			<rect id="XMLID_148_" x="146.1" y="353.7" class="st3" width="9.7" height="9.8"/>
			<rect id="XMLID_147_" x="146.1" y="343.9" class="st3" width="9.7" height="9.8"/>
			<rect id="XMLID_146_" x="146.1" y="334" class="st3" width="9.7" height="9.8"/>
			<rect id="XMLID_145_" x="146.1" y="324.2" class="st3" width="9.7" height="9.8"/>
			<rect id="XMLID_144_" x="146.1" y="314.4" class="st1" width="9.7" height="9.8"/>
			<rect id="XMLID_143_" x="146.1" y="304.6" class="st1" width="9.7" height="9.8"/>
			<rect id="XMLID_142_" x="146.1" y="294.7" class="st3" width="9.7" height="9.8"/>
			<rect id="XMLID_141_" x="146.1" y="284.9" class="st3" width="9.7" height="9.8"/>
			<rect id="XMLID_140_" x="146.1" y="275.1" class="st3" width="9.7" height="9.8"/>
			<rect id="XMLID_139_" x="146.1" y="265.3" class="st3" width="9.7" height="9.8"/>
			<rect id="XMLID_138_" x="146.1" y="255.4" class="st2" width="9.7" height="9.8"/>
			<rect id="XMLID_137_" x="146.1" y="245.6" class="st2" width="9.7" height="9.8"/>
			<rect id="XMLID_136_" x="146.1" y="235.8" class="st0" width="9.7" height="9.8"/>
			<rect id="XMLID_135_" x="136.3" y="540.3" class="st0" width="9.7" height="9.8"/>
			<rect id="XMLID_134_" x="136.3" y="530.5" class="st1" width="9.7" height="9.8"/>
			<rect id="XMLID_133_" x="136.3" y="520.7" class="st1" width="9.7" height="9.8"/>
			<rect id="XMLID_132_" x="136.3" y="510.9" class="st1" width="9.7" height="9.8"/>
			<rect id="XMLID_131_" x="136.3" y="501" class="st3" width="9.7" height="9.8"/>
			<rect id="XMLID_130_" x="136.3" y="491.2" class="st3" width="9.7" height="9.8"/>
			<rect id="XMLID_129_" x="136.3" y="481.4" class="st3" width="9.7" height="9.8"/>
			<rect id="XMLID_128_" x="136.3" y="471.6" class="st3" width="9.7" height="9.8"/>
			<rect id="XMLID_127_" x="136.3" y="461.8" class="st3" width="9.7" height="9.8"/>
			<rect id="XMLID_126_" x="136.3" y="451.9" class="st3" width="9.7" height="9.8"/>
			<rect id="XMLID_125_" x="136.3" y="442.1" class="st3" width="9.7" height="9.8"/>
			<rect id="XMLID_124_" x="136.3" y="432.3" class="st3" width="9.7" height="9.8"/>
			<rect id="XMLID_123_" x="136.3" y="422.5" class="st3" width="9.7" height="9.8"/>
			<rect id="XMLID_122_" x="136.3" y="412.6" class="st3" width="9.7" height="9.8"/>
			<rect id="XMLID_121_" x="136.3" y="402.8" class="st3" width="9.7" height="9.8"/>
			<rect id="XMLID_120_" x="136.3" y="393" class="st3" width="9.7" height="9.8"/>
			<rect id="XMLID_119_" x="136.3" y="383.2" class="st3" width="9.7" height="9.8"/>
			<rect id="XMLID_118_" x="136.3" y="373.3" class="st3" width="9.7" height="9.8"/>
			<rect id="XMLID_117_" x="136.3" y="363.5" class="st3" width="9.7" height="9.8"/>
			<rect id="XMLID_116_" x="136.3" y="353.7" class="st3" width="9.7" height="9.8"/>
			<rect id="XMLID_115_" x="136.3" y="343.9" class="st3" width="9.7" height="9.8"/>
			<rect id="XMLID_114_" x="136.3" y="334" class="st3" width="9.7" height="9.8"/>
			<rect id="XMLID_113_" x="136.3" y="324.2" class="st3" width="9.7" height="9.8"/>
			<rect id="XMLID_112_" x="136.3" y="314.4" class="st1" width="9.7" height="9.8"/>
			<rect id="XMLID_111_" x="136.3" y="304.6" class="st3" width="9.7" height="9.8"/>
			<rect id="XMLID_110_" x="136.3" y="294.7" class="st3" width="9.7" height="9.8"/>
			<rect id="XMLID_109_" x="136.3" y="284.9" class="st3" width="9.7" height="9.8"/>
			<rect id="XMLID_108_" x="136.3" y="275.1" class="st2" width="9.7" height="9.8"/>
			<rect id="XMLID_107_" x="136.3" y="265.3" class="st2" width="9.7" height="9.8"/>
			<rect id="XMLID_106_" x="136.3" y="255.4" class="st2" width="9.7" height="9.8"/>
			<rect id="XMLID_105_" x="126.6" y="530.5" class="st1" width="9.7" height="9.8"/>
			<rect id="XMLID_104_" x="126.6" y="520.7" class="st1" width="9.7" height="9.8"/>
			<rect id="XMLID_103_" x="126.6" y="510.9" class="st1" width="9.7" height="9.8"/>
			<rect id="XMLID_102_" x="126.6" y="501" class="st3" width="9.7" height="9.8"/>
			<rect id="XMLID_101_" x="126.6" y="491.2" class="st3" width="9.7" height="9.8"/>
			<rect id="XMLID_100_" x="126.6" y="481.4" class="st3" width="9.7" height="9.8"/>
			<rect id="XMLID_99_" x="126.6" y="471.6" class="st3" width="9.7" height="9.8"/>
			<rect id="XMLID_98_" x="126.6" y="461.8" class="st3" width="9.7" height="9.8"/>
			<rect id="XMLID_97_" x="126.6" y="451.9" class="st3" width="9.7" height="9.8"/>
			<rect id="XMLID_96_" x="126.6" y="442.1" class="st3" width="9.7" height="9.8"/>
			<rect id="XMLID_95_" x="126.6" y="432.3" class="st3" width="9.7" height="9.8"/>
			<rect id="XMLID_94_" x="126.6" y="422.5" class="st3" width="9.7" height="9.8"/>
			<rect id="XMLID_93_" x="126.6" y="412.6" class="st3" width="9.7" height="9.8"/>
			<rect id="XMLID_92_" x="126.6" y="402.8" class="st3" width="9.7" height="9.8"/>
			<rect id="XMLID_91_" x="126.6" y="393" class="st3" width="9.7" height="9.8"/>
			<rect id="XMLID_90_" x="126.6" y="383.2" class="st3" width="9.7" height="9.8"/>
			<rect id="XMLID_89_" x="126.6" y="373.3" class="st3" width="9.7" height="9.8"/>
			<rect id="XMLID_88_" x="126.6" y="363.5" class="st3" width="9.7" height="9.8"/>
			<rect id="XMLID_87_" x="126.6" y="353.7" class="st3" width="9.7" height="9.8"/>
			<rect id="XMLID_86_" x="126.6" y="343.9" class="st3" width="9.7" height="9.8"/>
			<rect id="XMLID_85_" x="126.6" y="334" class="st3" width="9.7" height="9.8"/>
			<rect id="XMLID_84_" x="126.6" y="324.2" class="st0" width="9.7" height="9.8"/>
			<rect id="XMLID_83_" x="126.6" y="314.4" class="st0" width="9.7" height="9.8"/>
			<rect id="XMLID_82_" x="126.6" y="304.6" class="st2" width="9.7" height="9.8"/>
			<rect id="XMLID_81_" x="126.6" y="294.7" class="st2" width="9.7" height="9.8"/>
			<rect id="XMLID_80_" x="126.6" y="284.9" class="st2" width="9.7" height="9.8"/>
			<rect id="XMLID_79_" x="126.6" y="275.1" class="st2" width="9.7" height="9.8"/>
			<rect id="XMLID_78_" x="116.8" y="540.3" class="st0" width="9.7" height="9.8"/>
			<rect id="XMLID_77_" x="116.8" y="530.5" class="st0" width="9.7" height="9.8"/>
			<rect id="XMLID_76_" x="116.8" y="520.7" class="st1" width="9.7" height="9.8"/>
			<rect id="XMLID_75_" x="116.8" y="510.9" class="st1" width="9.7" height="9.8"/>
			<rect id="XMLID_74_" x="116.8" y="501" class="st1" width="9.7" height="9.8"/>
			<rect id="XMLID_73_" x="116.8" y="491.2" class="st3" width="9.7" height="9.8"/>
			<rect id="XMLID_72_" x="116.8" y="481.4" class="st3" width="9.7" height="9.8"/>
			<rect id="XMLID_71_" x="116.8" y="471.6" class="st3" width="9.7" height="9.8"/>
			<rect id="XMLID_70_" x="116.8" y="461.8" class="st3" width="9.7" height="9.8"/>
			<rect id="XMLID_69_" x="116.8" y="451.9" class="st3" width="9.7" height="9.8"/>
			<rect id="XMLID_68_" x="116.8" y="442.1" class="st3" width="9.7" height="9.8"/>
			<rect id="XMLID_67_" x="116.8" y="432.3" class="st3" width="9.7" height="9.8"/>
			<rect id="XMLID_66_" x="116.8" y="422.5" class="st3" width="9.7" height="9.8"/>
			<rect id="XMLID_65_" x="116.8" y="412.6" class="st3" width="9.7" height="9.8"/>
			<rect id="XMLID_64_" x="116.8" y="402.8" class="st3" width="9.7" height="9.8"/>
			<rect id="XMLID_63_" x="116.8" y="393" class="st3" width="9.7" height="9.8"/>
			<rect id="XMLID_62_" x="116.8" y="383.2" class="st3" width="9.7" height="9.8"/>
			<rect id="XMLID_61_" x="116.8" y="373.3" class="st3" width="9.7" height="9.8"/>
			<rect id="XMLID_60_" x="116.8" y="363.5" class="st3" width="9.7" height="9.8"/>
			<rect id="XMLID_59_" x="116.8" y="353.7" class="st3" width="9.7" height="9.8"/>
			<rect id="XMLID_58_" x="116.8" y="343.9" class="st2" width="9.7" height="9.8"/>
			<rect id="XMLID_57_" x="116.8" y="334" class="st2" width="9.7" height="9.8"/>
			<rect id="XMLID_56_" x="116.8" y="324.2" class="st0" width="9.7" height="9.8"/>
			<rect id="XMLID_55_" x="116.8" y="314.4" class="st2" width="9.7" height="9.8"/>
			<rect id="XMLID_54_" x="116.8" y="304.6" class="st2" width="9.7" height="9.8"/>
			<rect id="XMLID_53_" x="116.8" y="294.7" class="st0" width="9.7" height="9.8"/>
			<rect id="XMLID_52_" x="107.1" y="530.5" class="st0" width="9.7" height="9.8"/>
			<rect id="XMLID_51_" x="107.1" y="520.7" class="st0" width="9.7" height="9.8"/>
			<rect id="XMLID_50_" x="107.1" y="510.9" class="st1" width="9.7" height="9.8"/>
			<rect id="XMLID_49_" x="107.1" y="501" class="st1" width="9.7" height="9.8"/>
			<rect id="XMLID_48_" x="107.1" y="491.2" class="st1" width="9.7" height="9.8"/>
			<rect id="XMLID_47_" x="107.1" y="481.4" class="st1" width="9.7" height="9.8"/>
			<rect id="XMLID_46_" x="107.1" y="471.6" class="st0" width="9.7" height="9.8"/>
			<rect id="XMLID_45_" x="107.1" y="461.8" class="st3" width="9.7" height="9.8"/>
			<rect id="XMLID_44_" x="107.1" y="451.9" class="st3" width="9.7" height="9.8"/>
			<rect id="XMLID_43_" x="107.1" y="442.1" class="st3" width="9.7" height="9.8"/>
			<rect id="XMLID_42_" x="107.1" y="432.3" class="st3" width="9.7" height="9.8"/>
			<rect id="XMLID_41_" x="107.1" y="422.5" class="st3" width="9.7" height="9.8"/>
			<rect id="XMLID_40_" x="107.1" y="412.6" class="st3" width="9.7" height="9.8"/>
			<rect id="XMLID_39_" x="107.1" y="402.8" class="st3" width="9.7" height="9.8"/>
			<rect id="XMLID_38_" x="107.1" y="393" class="st2" width="9.7" height="9.8"/>
			<rect id="XMLID_37_" x="107.1" y="383.2" class="st2" width="9.7" height="9.8"/>
			<rect id="XMLID_36_" x="107.1" y="373.3" class="st2" width="9.7" height="9.8"/>
			<rect id="XMLID_35_" x="107.1" y="363.5" class="st2" width="9.7" height="9.8"/>
			<rect id="XMLID_34_" x="107.1" y="353.7" class="st2" width="9.7" height="9.8"/>
			<rect id="XMLID_33_" x="107.1" y="343.9" class="st0" width="9.7" height="9.8"/>
			<rect id="XMLID_32_" x="107.1" y="334" class="st0" width="9.7" height="9.8"/>
			<rect id="XMLID_31_" x="97.4" y="510.9" class="st0" width="9.7" height="9.8"/>
			<rect id="XMLID_30_" x="97.4" y="501" class="st0" width="9.7" height="9.8"/>
			<rect id="XMLID_29_" x="97.4" y="491.2" class="st0" width="9.7" height="9.8"/>
			<rect id="XMLID_28_" x="97.4" y="481.4" class="st1" width="9.7" height="9.8"/>
			<rect id="XMLID_27_" x="97.4" y="471.6" class="st1" width="9.7" height="9.8"/>
			<rect id="XMLID_26_" x="97.4" y="461.8" class="st0" width="9.7" height="9.8"/>
			<rect id="XMLID_25_" x="97.4" y="451.9" class="st0" width="9.7" height="9.8"/>
			<rect id="XMLID_24_" x="97.4" y="442.1" class="st0" width="9.7" height="9.8"/>
			<rect id="XMLID_23_" x="97.4" y="432.3" class="st0" width="9.7" height="9.8"/>
			<rect id="XMLID_22_" x="97.4" y="422.5" class="st0" width="9.7" height="9.8"/>
			<rect id="XMLID_21_" x="97.4" y="412.6" class="st0" width="9.7" height="9.8"/>
			<rect id="XMLID_20_" x="97.4" y="402.8" class="st0" width="9.7" height="9.8"/>
			<rect id="XMLID_19_" x="97.4" y="393" class="st0" width="9.7" height="9.8"/>
			<rect id="XMLID_18_" x="97.4" y="383.2" class="st0" width="9.7" height="9.8"/>
			<rect id="XMLID_17_" x="97.4" y="373.3" class="st0" width="9.7" height="9.8"/>
			<rect id="XMLID_16_" x="97.4" y="363.5" class="st0" width="9.7" height="9.8"/>
			<rect id="XMLID_15_" x="87.6" y="402.8" class="st1" width="9.7" height="9.8"/>
			<rect id="XMLID_14_" x="87.6" y="393" class="st1" width="9.7" height="9.8"/>
			<rect id="XMLID_13_" x="87.6" y="383.2" class="st1" width="9.7" height="9.8"/>
			<rect id="XMLID_12_" x="87.6" y="373.3" class="st0" width="9.7" height="9.8"/>
			<rect id="XMLID_11_" x="87.6" y="363.5" class="st0" width="9.7" height="9.8"/>
			<rect id="XMLID_10_" x="77.9" y="393" class="st1" width="9.7" height="9.8"/>
			<rect id="XMLID_9_" x="77.9" y="383.2" class="st1" width="9.7" height="9.8"/>
			<rect id="XMLID_8_" x="77.9" y="373.3" class="st0" width="9.7" height="9.8"/>
			<rect id="XMLID_7_" x="77.9" y="363.5" class="st0" width="9.7" height="9.8"/>
			<rect id="XMLID_6_" x="68.2" y="393" class="st0" width="9.7" height="9.8"/>
			<rect id="XMLID_5_" x="68.2" y="383.2" class="st1" width="9.7" height="9.8"/>
			<rect id="XMLID_4_" x="68.2" y="373.3" class="st0" width="9.7" height="9.8"/>
			<rect id="XMLID_268_" x="58.4" y="383.2" class="st1" width="9.7" height="9.8"/>
			<rect id="XMLID_365_" x="58.4" y="373.3" class="st0" width="9.7" height="9.8"/>
		</g>
		<g id="XMLID_366_">
		</g>
	</g>
</g>
</svg>
